<?xml version="1.0" standalone="no"?>
<!DOCTYPE svg PUBLIC "-//W3C//DTD SVG 20010904//EN"
 "http://www.w3.org/TR/2001/REC-SVG-20010904/DTD/svg10.dtd">
<svg version="1.0" xmlns="http://www.w3.org/2000/svg"
 width="580.000000pt" height="386.000000pt" viewBox="0 0 580.000000 386.000000"
 preserveAspectRatio="xMidYMid meet">

<g transform="translate(0.000000,386.000000) scale(0.100000,-0.100000)"
fill="#000000" stroke="none">
<path d="M2346 3170 c-122 -39 -199 -178 -198 -359 3 -323 251 -576 464 -472
59 28 113 100 140 184 24 76 26 215 3 302 -35 136 -126 265 -222 318 -55 29
-141 42 -187 27z"/>
<path d="M3323 3166 c-128 -42 -233 -170 -278 -342 -23 -86 -21 -224 4 -304
74 -232 297 -276 463 -91 154 171 186 474 69 644 -58 85 -165 123 -258 93z"/>
<path d="M1688 2441 c-158 -100 -123 -405 68 -581 25 -23 71 -54 102 -68 270
-124 438 143 279 442 -102 192 -316 291 -449 207z"/>
<path d="M3869 2438 c-228 -113 -342 -436 -213 -605 131 -172 451 -18 535 258
31 104 25 218 -16 285 -42 67 -91 94 -176 94 -54 0 -77 -6 -130 -32z"/>
<path d="M2835 2263 c-62 -9 -142 -36 -194 -65 -107 -62 -203 -187 -232 -303
-30 -125 -90 -207 -195 -266 -77 -44 -164 -127 -198 -190 -41 -74 -47 -169
-16 -233 25 -53 61 -76 117 -76 47 0 76 19 171 112 132 128 190 219 237 372
48 152 122 218 244 218 77 0 137 -28 192 -90 36 -41 38 -47 22 -53 -10 -4 -31
-8 -48 -8 -16 -1 -37 -6 -45 -12 -11 -8 -7 -9 18 -5 47 8 113 -9 168 -44 26
-16 66 -32 90 -36 52 -7 53 -13 23 -101 -18 -55 -24 -63 -60 -77 -22 -9 -42
-23 -45 -31 -9 -21 -64 -33 -189 -41 -127 -8 -181 4 -297 62 -71 36 -93 36
-83 3 3 -10 7 -28 11 -38 4 -18 1 -19 -30 -14 -43 7 -48 -9 -11 -33 14 -9 25
-21 25 -26 0 -5 -16 -30 -35 -55 -33 -44 -36 -51 -34 -112 2 -42 -2 -74 -11
-88 -12 -19 -12 -24 4 -42 11 -12 25 -21 33 -21 7 0 21 -5 31 -11 14 -9 29 -6
72 16 46 23 63 27 118 23 48 -3 68 -9 78 -23 20 -27 17 -42 -10 -70 -28 -28
-98 -50 -222 -70 -164 -27 -213 -49 -214 -96 0 -22 34 -51 57 -48 10 2 24 0
31 -5 9 -5 23 0 40 17 17 15 44 27 72 31 179 25 229 29 335 30 105 0 135 -4
239 -32 141 -38 227 -41 342 -12 106 27 173 61 239 122 99 90 145 200 145 342
0 195 -78 330 -260 451 -99 66 -140 123 -175 239 -31 107 -62 162 -124 230
-57 61 -131 109 -207 135 -61 20 -167 32 -219 24z"/>
<path d="M2671 1773 c-47 -24 -68 -56 -87 -133 -20 -78 -13 -160 17 -201 42
-59 83 -25 99 82 25 161 32 194 46 221 18 34 18 34 -16 42 -15 4 -39 -1 -59
-11z"/>
</g>
</svg>
